<svg width="50" height="50" xmlns="http://www.w3.org/2000/svg"><path d="M50 25c0 13.807-11.193 25-25 25S0 38.807 0 25 11.193 0 25 0s25 11.193 25 25ZM19.33 12a.407.407 0 0 0-.358.197s-.199.324-.397.736c-.198.413-.416.893-.416 1.383 0 .404.099.76.301 1.033.201.271.524.448.862.448.339 0 .659-.178.86-.448.202-.273.302-.627.302-1.033 0-.489-.218-.969-.416-1.383a9.704 9.704 0 0 0-.396-.736.408.408 0 0 0-.342-.197Zm5.322.197s-.199.324-.396.736c-.2.413-.418.893-.418 1.383 0 .404.099.76.302 1.033.202.271.523.448.862.448.337 0 .658-.178.86-.448.202-.273.302-.627.302-1.033 0-.489-.219-.969-.418-1.383-.197-.412-.395-.736-.395-.736h-.002a.408.408 0 0 0-.697 0Zm5.677 0s-.197.324-.396.736c-.198.413-.416.893-.416 1.383 0 .404.098.76.302 1.033.201.271.521.448.86.448.338 0 .661-.178.861-.448.202-.273.302-.627.302-1.033 0-.489-.218-.969-.416-1.383-.199-.412-.397-.736-.397-.736a.407.407 0 0 0-.7 0Zm-11.08 4.286c-.604 0-1.09.486-1.09 1.091v3.885s.253.282 1.163.282c.908 0 1.162-.282 1.162-.282v-3.885c0-.605-.485-1.091-1.091-1.091Zm5.68 0c-.605 0-1.092.486-1.092 1.091v3.885s.254.282 1.162.282c.91 0 1.164-.282 1.164-.282v-3.885c0-.605-.487-1.091-1.092-1.091Zm5.678 0c-.606 0-1.091.486-1.091 1.091v3.885s.254.282 1.162.282c.91 0 1.163-.282 1.163-.282v-3.885c0-.605-.486-1.091-1.09-1.091Zm-9.27 4.976c0 .207-.077.41-.218.566 0 0-.108.11-.201.174a1.733 1.733 0 0 1-.358.19c-.294.119-.697.204-1.239.204-.544 0-.947-.085-1.239-.204a1.776 1.776 0 0 1-.36-.19c-.091-.064-.201-.174-.201-.174h.003a.863.863 0 0 1-.216-.533 4.868 4.868 0 0 0-4.307 4.846v3.461c.074-.036.148-.076.224-.129.208-.145.424-.351.655-.593.236-.244.506-.548.883-.824.384-.282.879-.525 1.475-.532.599-.005 1.103.233 1.495.518.385.28.661.595.898.858.236.264.441.479.631.618.186.133.37.195.487.195.116 0 .301-.063.485-.197.191-.138.396-.354.635-.617.238-.263.514-.577.899-.856.39-.283.89-.52 1.484-.52.593 0 1.093.237 1.484.52.383.279.659.592.898.856.238.263.443.479.635.617.185.134.369.197.486.197.116 0 .3-.062.484-.197.192-.138.397-.354.635-.617.239-.263.515-.577.9-.855.389-.283.888-.52 1.481-.52.594 0 1.095.236 1.485.519.384.279.662.594.9.857.238.265.442.483.632.62.184.133.367.194.479.193.112 0 .296-.065.483-.202.196-.143.407-.365.662-.631.254-.265.544-.554.913-.811A3.05 3.05 0 0 1 37 27.752v-1.414a4.867 4.867 0 0 0-4.308-4.846.839.839 0 0 1-.214.533s-.11.11-.201.174a1.727 1.727 0 0 1-.36.19c-.292.118-.695.204-1.239.204-.542 0-.945-.086-1.24-.204a1.8 1.8 0 0 1-.357-.19c-.093-.064-.201-.174-.201-.174h.002a.85.85 0 0 1-.217-.566h-1.65c0 .207-.078.41-.217.566 0 0-.107.11-.2.174a1.707 1.707 0 0 1-.358.19c-.295.118-.696.204-1.239.204-.545 0-.946-.086-1.24-.204a1.765 1.765 0 0 1-.359-.19 1.746 1.746 0 0 1-.2-.174h.002a.85.85 0 0 1-.217-.566Zm-5.085 7.967c-.111 0-.296.064-.484.201-.195.143-.406.366-.663.632a5.83 5.83 0 0 1-.912.81 3.03 3.03 0 0 1-1.193.514v3.72c0 1.623 5.372 2.941 11.999 2.941 6.629 0 11.999-1.318 11.999-2.941v-5.766a1.736 1.736 0 0 0-.218.128 4.643 4.643 0 0 0-.657.593c-.235.244-.505.548-.881.824-.384.28-.879.525-1.474.531-.6.006-1.103-.232-1.495-.517-.385-.28-.661-.596-.898-.86-.236-.263-.441-.477-.632-.617-.185-.134-.369-.194-.487-.194-.116 0-.301.061-.486.196-.193.139-.395.355-.634.617-.24.264-.515.578-.899.857-.391.282-.89.519-1.484.519-.595 0-1.094-.237-1.484-.519-.385-.279-.661-.592-.9-.857-.238-.262-.441-.478-.633-.617-.185-.135-.369-.196-.486-.196-.116 0-.301.061-.485.196-.193.139-.396.355-.635.617-.238.264-.514.578-.899.856-.389.282-.889.519-1.482.519-.594 0-1.094-.236-1.486-.518-.383-.279-.661-.593-.9-.859-.238-.263-.442-.481-.631-.62-.185-.133-.367-.194-.479-.193Z" style="fill:#efc806"/></svg>