<svg width="50" height="50" xmlns="http://www.w3.org/2000/svg"><path d="M50 25c0 13.807-11.193 25-25 25S0 38.807 0 25 11.193 0 25 0s25 11.193 25 25zm-33.225 4.535-2.47-.31v-11.6l-5.81.97v1.85l2.48.02v8.76l-2.46.31v1.95h8.26zm8.479 1.65c.773-.327 1.38-.797 1.82-1.41.446-.613.67-1.34.67-2.18 0-.773-.217-1.433-.65-1.98-.434-.553-1.017-.967-1.75-1.24.726-.353 1.27-.773 1.63-1.26.366-.493.55-1.087.55-1.78 0-1.247-.454-2.21-1.36-2.89-.9-.68-2.094-1.02-3.58-1.02-.92 0-1.744.16-2.47.48-.72.32-1.284.767-1.69 1.34-.4.58-.587 1.25-.56 2.01l.02.06h3.24c0-.267.066-.5.2-.7.126-.2.303-.357.53-.47a1.7 1.7 0 0 1 .77-.17c.5 0 .883.15 1.15.45.273.293.41.67.41 1.13 0 .32-.067.603-.2.85-.134.247-.33.437-.59.57-.254.14-.567.21-.94.21h-1.52v2.46h1.42c.666 0 1.173.167 1.52.5.353.333.53.76.53 1.28 0 .513-.16.927-.48 1.24-.32.32-.754.48-1.3.48-.354 0-.657-.073-.91-.22a1.547 1.547 0 0 1-.6-.59 1.56 1.56 0 0 1-.21-.8h-3.25l-.01.06c-.02.88.196 1.623.65 2.23.446.613 1.053 1.077 1.82 1.39.766.313 1.603.47 2.51.47.98 0 1.856-.167 2.63-.5zm7.035-2.46h-3.33v2.76h3.33zm7.132 1.41c.107-1.047.243-2.007.41-2.88.173-.873.403-1.7.69-2.48a13.68 13.68 0 0 1 1.11-2.29 17.127 17.127 0 0 1 1.71-2.31v-2.55h-10.07v3.79h2.47l.09-1.24h4.32c-.787.86-1.46 1.813-2.02 2.86a16.848 16.848 0 0 0-1.36 3.36 21.109 21.109 0 0 0-.7 3.74l-.12 1.35h3.34z" style="fill:#12b1c9"/></svg>