<svg width="50" height="50" xmlns="http://www.w3.org/2000/svg"><path d="M50 25c0 13.807-11.193 25-25 25S0 38.807 0 25 11.193 0 25 0s25 11.193 25 25zm-31.741 4.762-1.564-.329v-1.235h1.483v-2.284h-1.483v-9.193h-3.63L7 26.495l.241 1.703h5.804v1.235l-1.583.329v2.137h6.797zm-5.274-8.309.06.02v4.441h-2.797l2.456-4.101zm16.999 6.416h-2.747l-.161 1.253h-3.007l-.021-.051 2.297-2.425a40.368 40.368 0 0 0 1.934-2.176c.481-.595.83-1.152 1.043-1.674.207-.528.31-1.106.31-1.735 0-.915-.21-1.713-.631-2.395-.421-.689-1.023-1.221-1.805-1.595-.782-.381-1.716-.571-2.807-.571-1.087 0-2.038.221-2.846.661-.802.449-1.417 1.05-1.845 1.806-.427.761-.631 1.61-.612 2.545l.02.06h3.58c0-.687.137-1.232.411-1.634.28-.408.709-.611 1.283-.611.527 0 .925.17 1.192.511.261.348.392.77.392 1.264 0 .292-.057.6-.172.922a4.543 4.543 0 0 1-.561 1.052c-.252.381-.601.823-1.042 1.324l-4.883 5.152v2.347h10.678zm10.582 2.686C41.523 29.513 42 27.966 42 25.914v-3.198c0-2.045-.482-3.592-1.443-4.642-.964-1.049-2.253-1.574-3.871-1.574-1.637 0-2.932.525-3.89 1.574-.963 1.05-1.443 2.597-1.443 4.642v3.198c0 2.052.48 3.599 1.443 4.641.958 1.043 2.26 1.563 3.911 1.563 1.617 0 2.903-.52 3.859-1.563zM35.423 28.6c-.286-.481-.431-1.306-.431-2.476v-3.639c0-1.149.145-1.968.431-2.457.288-.487.71-.731 1.263-.731.536 0 .949.244 1.243.731.288.494.431 1.315.431 2.457v3.639c0 1.163-.14 1.988-.421 2.476-.286.489-.698.732-1.232.732-.569 0-.996-.243-1.284-.732z" style="fill:#456426"/></svg>