<svg width="50" height="50" xmlns="http://www.w3.org/2000/svg"><path d="M50 25c0 13.807-11.193 25-25 25S0 38.807 0 25 11.193 0 25 0s25 11.193 25 25Zm-18.368-5.526a3.686 3.686 0 0 0 2.589 3.52v4.014a3.691 3.691 0 0 0-2.42 2.414h-3.285a3.694 3.694 0 0 0-2.325-2.382v-4.079A3.683 3.683 0 0 0 25 15.79a3.685 3.685 0 0 0-3.516 2.579h-3.285a3.685 3.685 0 1 0-4.62 4.62v4.023a3.684 3.684 0 1 0 2.21 0v-4.023a3.688 3.688 0 0 0 2.41-2.41h3.285a3.69 3.69 0 0 0 2.496 2.436v3.971a3.684 3.684 0 1 0 4.536 4.647h3.285A3.685 3.685 0 0 0 39 30.527a3.688 3.688 0 0 0-2.568-3.512v-4.028a3.685 3.685 0 1 0-4.8-3.513Z" style="fill:#137aa9"/></svg>