<svg width="50" height="50" xmlns="http://www.w3.org/2000/svg"><path d="M50 25c0 13.807-11.193 25-25 25S0 38.807 0 25 11.193 0 25 0s25 11.193 25 25Zm-13.947-9.212a3.947 3.947 0 0 0-2.795 6.736l-2.015 3.823a3.919 3.919 0 0 0-1.163.028l-1.834-4.393a3.947 3.947 0 1 0-6.372.164l-1.751 4.193a4.008 4.008 0 0 0-1.166.049l-2.108-3.976a3.947 3.947 0 1 0-2.056 1.179l2.08 3.923a3.947 3.947 0 1 0 6.779 2.751c0-1.19-.525-2.255-1.357-2.979l1.574-3.767a3.973 3.973 0 0 0 2.428-.055l1.673 4.004a3.947 3.947 0 1 0 6.734 2.797c0-1.164-.503-2.21-1.303-2.932l1.956-3.712a3.947 3.947 0 1 0 .696-7.833Z" style="fill:#168ac0"/></svg>