<svg width="50" height="50" xmlns="http://www.w3.org/2000/svg"><path d="M50 25c0 13.807-11.193 25-25 25S0 38.807 0 25 11.193 0 25 0s25 11.193 25 25Zm-13.383 6.92-5.468-9.343h2.112c.25 0 .498-.1.558-.25.124-.201.124-.399-.06-.547l-3.976-4.273h.87c.248 0 .498-.099.561-.298a.384.384 0 0 0 0-.499l-5.594-6.511c-.124-.099-.311-.199-.497-.199-.185 0-.375.098-.499.199l-5.591 6.51c-.126.15-.185.349-.061.498.126.2.309.299.556.299h.872l-3.976 4.273c-.123.149-.123.347-.062.547a.703.703 0 0 0 .562.249h2.174l-5.469 9.345c-.123.15-.186.348-.062.548.062.149.312.297.56.297h8.075v6.29c0 .494 1.307.945 2.922.945 1.553 0 2.859-.448 2.92-.945v-6.29h8.076c.189 0 .435-.148.561-.297.059-.15.059-.398-.064-.548Z" style="fill:#468d30"/></svg>