<svg width="50" height="50" xmlns="http://www.w3.org/2000/svg"><path d="M50 25c0 13.807-11.193 25-25 25S0 38.807 0 25 11.193 0 25 0s25 11.193 25 25zm-29.178.846c.004-.312.003-.622-.006-.932h-10.14c-.01.309-.011.62-.006.932-.591-.223-1.218-.302-1.763-.181-.805.177-1.35.73-1.538 1.556-.244 1.077.294 2.313 1.517 3.481.963.918 2.255 1.683 3.62 2.155.565.798 1.289 1.439 2.207 1.83-.134.489-.604 1.906-1.739 2.772l2.772-.001h2.773c-1.136-.867-1.606-2.283-1.738-2.772.917-.391 1.641-1.032 2.206-1.831 1.364-.471 2.656-1.235 3.62-2.154 1.222-1.167 1.761-2.403 1.517-3.481-.189-.825-.736-1.378-1.54-1.555-.544-.121-1.172-.043-1.762.181zm-.947 5.346c.5-1.252.766-2.663.88-4.013.501-.31 1.108-.466 1.575-.364.352.078.557.289.643.666.144.638-.297 1.523-1.18 2.367a8.363 8.363 0 0 1-1.918 1.344zM8.519 27.481c.084-.377.288-.588.642-.666.467-.103 1.074.054 1.575.364.114 1.35.381 2.761.88 4.013a8.357 8.357 0 0 1-1.917-1.344c-.883-.844-1.325-1.729-1.18-2.367zm3.665 12.26h7.123v-1.54h-7.123zm27.242-13.895c.005-.311.004-.621-.005-.932H29.28c-.009.309-.012.62-.006.932-.591-.223-1.218-.302-1.763-.181-.804.177-1.351.73-1.538 1.556-.244 1.077.294 2.313 1.517 3.481.963.918 2.255 1.683 3.62 2.155.565.798 1.289 1.439 2.206 1.83-.133.489-.603 1.906-1.738 2.772l2.772-.001h2.773c-1.136-.867-1.606-2.283-1.739-2.772.918-.391 1.642-1.032 2.207-1.831 1.364-.471 2.656-1.235 3.62-2.154 1.222-1.167 1.761-2.403 1.517-3.481-.19-.825-.736-1.378-1.54-1.555-.543-.121-1.171-.043-1.762.181zm-.947 5.346c.499-1.252.766-2.663.88-4.013.501-.31 1.109-.466 1.575-.364.352.078.557.289.642.666.145.638-.296 1.523-1.18 2.367a8.357 8.357 0 0 1-1.917 1.344zm-11.356-3.711c.084-.377.289-.588.642-.666.467-.103 1.075.054 1.575.364.114 1.35.381 2.761.881 4.013a8.363 8.363 0 0 1-1.918-1.344c-.884-.844-1.325-1.729-1.18-2.367zm3.666 12.26h7.122v-1.54h-7.122zm-.833-29.742c.004-.311.003-.621-.005-.932H19.809c-.008.309-.011.621-.004.932-.592-.223-1.219-.301-1.764-.181-.805.177-1.35.73-1.537 1.556-.245 1.077.294 2.313 1.516 3.481.963.918 2.256 1.683 3.619 2.155.566.798 1.291 1.439 2.208 1.83-.134.489-.604 1.906-1.739 2.772l2.772-.001h2.774c-1.137-.867-1.607-2.283-1.739-2.772.917-.391 1.641-1.032 2.207-1.83 1.363-.472 2.656-1.236 3.619-2.155 1.221-1.167 1.761-2.403 1.516-3.481-.188-.825-.735-1.378-1.538-1.555-.545-.12-1.173-.043-1.763.181zm-.947 5.347c.499-1.253.767-2.664.88-4.014.5-.31 1.108-.466 1.575-.364.352.078.557.289.643.667.145.638-.297 1.522-1.181 2.366a8.392 8.392 0 0 1-1.917 1.345zm-11.356-3.711c.085-.378.288-.589.642-.667.467-.103 1.075.054 1.575.364.114 1.351.381 2.761.881 4.014a8.367 8.367 0 0 1-1.918-1.345c-.884-.844-1.325-1.728-1.18-2.366zm3.666 12.259h7.121v-1.54h-7.121z" style="fill:#8875f5"/></svg>