<svg width="50" height="50" xmlns="http://www.w3.org/2000/svg"><path d="M50 25c0 13.807-11.193 25-25 25S0 38.807 0 25 11.193 0 25 0s25 11.193 25 25zM23.209 36.707h4.58v-.99h-4.58zm5.553-8.931c.001-.2.001-.399-.004-.599h-6.517c-.007.2-.008.399-.004.599-.379-.144-.783-.195-1.134-.116-.517.113-.868.47-.988.999-.156.693.189 1.487.976 2.238.618.59 1.448 1.081 2.325 1.385.364.513.829.925 1.419 1.176-.085.315-.388 1.226-1.118 1.782l1.782-.001h1.783c-.73-.558-1.033-1.467-1.118-1.782.589-.251 1.055-.663 1.418-1.175.877-.305 1.709-.795 2.327-1.386.785-.75 1.132-1.544.975-2.238-.121-.528-.473-.885-.991-.998-.348-.079-.752-.028-1.131.116zm-7.496.623c.302-.066.691.034 1.013.233.073.868.245 1.775.566 2.58a5.365 5.365 0 0 1-1.232-.865c-.567-.541-.851-1.111-.758-1.521.053-.241.184-.377.411-.427zm6.887 2.813c.322-.805.492-1.712.565-2.58.324-.199.713-.299 1.013-.233.226.05.358.186.413.427.092.41-.19.98-.758 1.521a5.35 5.35 0 0 1-1.233.865zm7.635-7.683h4.577v-.989h-4.577zM41.336 14h-6.518c-.005.2-.007.399-.003.598-.38-.143-.784-.192-1.134-.116-.518.114-.867.469-.988 1.001-.157.693.189 1.486.975 2.237.619.591 1.449 1.082 2.325 1.385.365.513.83.925 1.419 1.177-.085.314-.387 1.225-1.116 1.782l1.781-.001h1.783c-.731-.558-1.033-1.468-1.119-1.781.59-.252 1.055-.664 1.419-1.177.877-.303 1.708-.794 2.326-1.386.785-.75 1.133-1.543.975-2.237-.121-.531-.472-.886-.988-1-.351-.076-.755-.028-1.135.116.004-.199.003-.398-.002-.598zm-.039 1.456c.321-.199.711-.3 1.012-.235.226.051.356.187.413.429.093.41-.191.979-.76 1.521a5.263 5.263 0 0 1-1.232.865c.322-.806.494-1.712.567-2.58zm-7.452-.235c.3-.065.69.036 1.012.235.073.869.244 1.774.566 2.58a5.29 5.29 0 0 1-1.233-.865c-.568-.542-.852-1.111-.759-1.521.055-.242.185-.378.414-.429zm-23.214 8.308h4.578v-.989h-4.578zM16.179 14H9.661c-.004.199-.007.399-.002.598-.381-.143-.784-.192-1.135-.116-.517.114-.866.469-.987 1.001-.158.693.189 1.486.974 2.237.619.591 1.449 1.082 2.326 1.385.364.513.83.925 1.42 1.177-.086.314-.389 1.225-1.119 1.782l1.783-.001h1.783c-.732-.558-1.034-1.468-1.118-1.781.589-.252 1.055-.664 1.418-1.177.876-.303 1.707-.794 2.326-1.386.785-.75 1.132-1.543.974-2.237-.12-.531-.472-.886-.987-1-.352-.076-.755-.028-1.134.116.003-.199.001-.398-.004-.598zm-7.904 1.65c.055-.242.185-.378.412-.429.301-.065.692.036 1.013.235.074.869.246 1.774.566 2.58a5.293 5.293 0 0 1-1.232-.865c-.567-.542-.852-1.111-.759-1.521zm7.865-.194c.322-.199.712-.3 1.012-.235.228.051.358.187.414.429.093.41-.192.979-.759 1.521a5.34 5.34 0 0 1-1.233.865c.322-.806.492-1.712.566-2.58zm19.65 21.251h4.577v-.99H35.79zm5.548-9.53h-6.519c-.005.199-.006.399-.003.599-.38-.144-.783-.195-1.133-.116-.516.113-.868.47-.989.999-.157.693.189 1.487.976 2.238.618.59 1.448 1.081 2.325 1.385.364.513.829.925 1.419 1.176-.085.315-.386 1.226-1.117 1.782l1.781-.001h1.783c-.73-.558-1.033-1.467-1.119-1.782.59-.251 1.056-.663 1.419-1.175.877-.305 1.709-.795 2.327-1.386.785-.75 1.133-1.544.975-2.238-.121-.528-.473-.885-.989-.998-.35-.079-.754-.028-1.133.116.004-.199.003-.398-.003-.599zm-7.904 1.649c.053-.241.186-.377.413-.427.3-.066.69.034 1.012.233.073.868.244 1.775.565 2.58a5.409 5.409 0 0 1-1.232-.865c-.568-.541-.852-1.111-.758-1.521zm7.864-.194c.322-.199.713-.299 1.013-.233.226.05.357.186.412.427.093.41-.19.98-.758 1.521a5.35 5.35 0 0 1-1.233.865c.321-.805.494-1.712.566-2.58zm-30.667 8.075h4.579v-.99h-4.579zm5.549-9.53H9.663a9.97 9.97 0 0 0-.004.599c-.38-.144-.784-.195-1.135-.116-.517.113-.867.47-.987.999-.156.693.188 1.487.975 2.238.619.59 1.449 1.081 2.326 1.385.364.513.829.925 1.419 1.176-.086.315-.388 1.226-1.118 1.782l1.781-.001h1.784c-.73-.558-1.033-1.467-1.118-1.782.589-.251 1.055-.663 1.418-1.175.876-.305 1.708-.795 2.327-1.386.785-.75 1.131-1.544.974-2.238-.12-.528-.472-.885-.99-.998-.348-.079-.752-.028-1.132.116.002-.2.002-.399-.003-.599zm-.605 4.035c.322-.805.492-1.712.564-2.58.324-.199.714-.299 1.014-.233.226.05.357.186.413.427.092.41-.191.98-.758 1.521a5.35 5.35 0 0 1-1.233.865zm-6.887-2.813c.301-.066.691.034 1.013.233.073.868.244 1.775.565 2.58a5.409 5.409 0 0 1-1.232-.865c-.566-.541-.851-1.111-.758-1.521.054-.241.185-.377.412-.427zm14.521-4.87h4.579v-.989h-4.579zm5.552-8.931c.002-.199.002-.398-.004-.598H22.24c-.006.2-.008.399-.004.598-.379-.143-.783-.194-1.134-.116-.517.114-.867.47-.988 1-.156.692.189 1.487.976 2.238.618.589 1.448 1.081 2.326 1.384.363.514.829.925 1.419 1.177-.086.315-.389 1.226-1.119 1.782l1.782-.001h1.783c-.73-.558-1.033-1.467-1.118-1.782.59-.252 1.056-.663 1.419-1.176.876-.304 1.708-.795 2.326-1.385.785-.75 1.132-1.545.975-2.238-.12-.529-.472-.885-.99-.999-.349-.078-.753-.028-1.132.116zm-7.496.624c.302-.067.691.034 1.013.233.073.868.245 1.774.566 2.58a5.365 5.365 0 0 1-1.232-.865c-.567-.542-.851-1.112-.758-1.521.054-.242.184-.378.411-.427zm6.887 2.813c.322-.806.492-1.712.565-2.58.324-.199.713-.3 1.013-.233.226.049.358.185.413.427.092.409-.19.979-.758 1.521a5.35 5.35 0 0 1-1.233.865z" style="fill:#6046f1"/></svg>