<svg width="50" height="50" xmlns="http://www.w3.org/2000/svg"><path d="M50 25c0 13.807-11.193 25-25 25S0 38.807 0 25 11.193 0 25 0s25 11.193 25 25zm-30.479 5.195c.002-.219.002-.437-.004-.656h-7.146a11.95 11.95 0 0 0-.004.656c-.416-.157-.859-.213-1.244-.127-.567.124-.951.515-1.083 1.096-.171.759.207 1.63 1.07 2.454.678.646 1.588 1.185 2.55 1.518.399.563.909 1.014 1.556 1.29-.094.345-.426 1.344-1.226 1.954l1.953-.001h1.956c-.801-.612-1.133-1.609-1.226-1.954.646-.276 1.157-.727 1.555-1.289.961-.334 1.873-.872 2.551-1.519.861-.823 1.241-1.694 1.069-2.454-.132-.58-.518-.971-1.086-1.095-.382-.086-.825-.031-1.241.127zm-8.67 1.152c.059-.265.202-.414.451-.468.331-.073.758.037 1.111.255.08.952.268 1.946.62 2.829a5.906 5.906 0 0 1-1.351-.948c-.621-.594-.933-1.219-.831-1.668zm8.003 2.616c.353-.883.539-1.877.619-2.829.355-.218.782-.328 1.111-.255.248.054.392.203.453.468.101.449-.209 1.074-.831 1.668a5.89 5.89 0 0 1-1.352.948zm19.779-3.768c.004-.218.003-.436-.004-.656h-7.148c-.005.218-.007.437-.003.656-.417-.157-.859-.213-1.242-.127-.566.124-.952.515-1.085 1.096-.172.759.207 1.63 1.07 2.454.678.646 1.588 1.185 2.55 1.518.399.563.909 1.014 1.555 1.29-.093.345-.423 1.344-1.224 1.954l1.953-.001h1.955c-.801-.612-1.133-1.609-1.227-1.954.647-.276 1.158-.727 1.556-1.289.961-.334 1.873-.872 2.551-1.519.861-.823 1.242-1.694 1.069-2.454-.133-.58-.518-.971-1.084-1.095-.384-.086-.827-.031-1.242.127zm-8.671 1.152c.059-.265.204-.414.453-.468.329-.073.757.037 1.11.255.08.952.268 1.946.62 2.829a5.906 5.906 0 0 1-1.351-.948c-.623-.594-.935-1.219-.832-1.668zm8.003 2.616c.352-.883.541-1.877.62-2.829.353-.218.782-.328 1.111-.255.248.054.391.203.452.468.102.449-.209 1.074-.831 1.668a5.89 5.89 0 0 1-1.352.948zM19.522 11.656c.003-.218.001-.437-.004-.656h-7.147c-.005.218-.008.438-.003.656-.417-.157-.859-.211-1.244-.127-.567.125-.95.514-1.082 1.097-.173.76.207 1.63 1.068 2.453.678.648 1.589 1.186 2.55 1.519.399.562.91 1.014 1.557 1.29-.094.344-.426 1.343-1.227 1.954l1.955-.001H17.9c-.802-.612-1.134-1.61-1.226-1.953.646-.276 1.157-.728 1.555-1.29.961-.333 1.872-.871 2.551-1.52.86-.822 1.241-1.692 1.068-2.453-.132-.582-.518-.971-1.083-1.096-.385-.084-.827-.031-1.243.127zm-8.671 1.153c.06-.265.203-.414.452-.47.33-.071.758.039 1.11.257.082.953.27 1.946.621 2.829a5.844 5.844 0 0 1-1.351-.948c-.622-.594-.934-1.218-.832-1.668zm8.003 2.616c.353-.883.54-1.877.621-2.829.353-.218.781-.328 1.109-.257.25.056.393.205.454.47.103.45-.21 1.074-.832 1.668a5.838 5.838 0 0 1-1.352.948zm-5.42 6.024h5.02v-1.085h-5.02zm19.112 18.539h5.019v-1.085h-5.019zm-19.113 0h5.021v-1.085h-5.021zm25.198-28.332c.004-.218.003-.437-.003-.656h-7.147a15.94 15.94 0 0 0-.003.656c-.417-.157-.86-.211-1.243-.127-.568.125-.951.514-1.084 1.097-.172.76.207 1.63 1.069 2.453.679.648 1.589 1.186 2.55 1.519.4.562.91 1.014 1.556 1.29-.094.344-.425 1.343-1.224 1.954l1.953-.001h1.955c-.802-.612-1.133-1.61-1.227-1.953.647-.276 1.157-.728 1.556-1.29.961-.333 1.873-.871 2.55-1.52.861-.822 1.243-1.692 1.069-2.453-.132-.582-.517-.971-1.083-1.096-.385-.084-.828-.031-1.244.127zm-8.67 1.153c.06-.265.202-.414.453-.47.329-.071.757.039 1.11.257.08.953.268 1.946.621 2.829a5.808 5.808 0 0 1-1.352-.948c-.623-.594-.934-1.218-.832-1.668zm8.003 2.616c.353-.883.542-1.877.621-2.829.352-.218.78-.328 1.11-.257.248.056.391.205.453.47.102.45-.209 1.074-.833 1.668a5.81 5.81 0 0 1-1.351.948zm-5.419 6.024h5.019v-1.085h-5.019zm-3.446-.429c.002-.219.002-.437-.004-.656h-7.146a11.95 11.95 0 0 0-.004.656c-.416-.157-.859-.213-1.244-.127-.567.124-.951.515-1.083 1.096-.171.759.207 1.63 1.07 2.454.678.646 1.588 1.185 2.55 1.518.399.563.909 1.014 1.556 1.29-.094.345-.426 1.344-1.226 1.954l1.953-.001h1.956c-.801-.612-1.133-1.609-1.226-1.954.646-.276 1.157-.727 1.555-1.289.961-.334 1.873-.872 2.551-1.519.861-.823 1.241-1.694 1.069-2.454-.132-.58-.518-.971-1.086-1.095-.382-.086-.825-.031-1.241.127zm-8.67 1.152c.059-.265.202-.414.451-.468.331-.073.758.037 1.111.255.08.952.268 1.946.62 2.829a5.906 5.906 0 0 1-1.351-.948c-.621-.594-.933-1.219-.831-1.668zm8.003 2.616c.353-.883.539-1.877.619-2.829.355-.218.782-.328 1.111-.255.248.054.392.203.453.468.101.449-.209 1.074-.831 1.668a5.89 5.89 0 0 1-1.352.948zm-5.421 6.025h5.021v-1.085h-5.021z" style="fill:#6046f1"/></svg>