<svg width="50" height="50" xmlns="http://www.w3.org/2000/svg"><path d="M50 25c0 13.807-11.193 25-25 25S0 38.807 0 25 11.193 0 25 0s25 11.193 25 25zM31.677 12.731c-1.496 0-2.87.594-3.954 1.588-1.313 1.203-3.426 1.203-4.737 0-1.086-.994-2.46-1.588-3.956-1.588-3.492 0-6.323 3.236-6.323 7.226 0 1.903.645 3.631 1.696 4.921.636.78 1.162 1.657 1.314 2.65.703 4.576 2.588 8.382 5.099 10.495h.925v-5.419a3.612 3.612 0 1 1 7.225 0v5.419h.925c2.51-2.113 4.396-5.919 5.098-10.493.15-.994.679-1.872 1.312-2.651C37.355 23.589 38 21.86 38 19.957c0-3.99-2.831-7.226-6.323-7.226z" style="fill:#10ddf4"/></svg>