<svg width="50" height="50" xmlns="http://www.w3.org/2000/svg"><path d="M50 25c0 13.807-11.193 25-25 25S0 38.807 0 25 11.193 0 25 0s25 11.193 25 25zM31.828 11.191c-2.426-.118-4.929.937-6.949 2.026-.587.315-1.166.654-1.782.9-.603.242-1.237.342-1.881.414-.351.041-.71.084-1.132.161-1.364.245-2.42 1.012-2.958 1.64a.698.698 0 0 0-.072.754c.125.252.375.398.626.36.359-.055 1.217-.126 1.472.413.237.499.18.717-.368 2.292-.316.919-.753 2.177-1.308 4.108-.815 2.821-.954 5.784-.898 7.996-.122.405-.806 2.537-2.209 4.167-1.571 1.821-1.94 3.582-2.016 4.078a.638.638 0 0 0 .244.607.488.488 0 0 0 .417.088.46.46 0 0 0 .169-.086c.356-.281 1.57-1.225 2.266-1.556.882-.419 1.486-1.091 1.857-1.625.313.251.875.508 1.721.199.704-.263 1.238.096 1.493.332.18.166.426.188.614.056.187-.132.266-.385.198-.63-.155-.569-.64-1.951-1.726-2.486-.68-.332-.9-1.189-.962-1.523 1.208-2.469 3.597-6.758 6.876-9.845a27.776 27.776 0 0 1 3.502-2.804c.211.356.318.913.31 1.639a.646.646 0 0 0 .263.533c.16.118.363.135.53.04 1.092-.623 1.561-1.81 1.975-2.856.322-.818.603-1.525 1.095-1.804 1.62-.919 3.046-1.319 4.086-1.609 1.254-.35 2.166-.567 2.204-1.469.045-1.062-1.391-1.673-2.363-1.902a7.206 7.206 0 0 1-.659-.174c-.07-.024-.185-.264-.327-.432-.292-.36-.738-.903-1.803-1.47-.819-.434-1.648-.49-2.504-.533zm2.287 3.185c.072.062.117.249.04.379-.082.144-.16.224-.788.392-.065.017-.132.035-.208.052a.375.375 0 0 1-.462-.257.37.37 0 0 1 .189-.41c0-.147.093-.284.244-.345.235-.092.591-.164.985.189z" style="fill:#9830c5"/></svg>