<svg width="50" height="50" xmlns="http://www.w3.org/2000/svg"><path d="M50 25c0 13.807-11.193 25-25 25S0 38.807 0 25 11.193 0 25 0s25 11.193 25 25zm-28.922 6.363 2.77-2.6-4.14-4.23 4.14-4.22-2.77-2.6-4.04 4.11-4.03-4.11-2.77 2.6 4.14 4.22-4.14 4.23 2.77 2.6 4.03-4.12zm18.458-2.66h-3.66l-.2 1.69h-4.03l-.02-.07 3.06-3.24c1.073-1.133 1.933-2.1 2.58-2.9.647-.793 1.11-1.543 1.39-2.25.287-.7.43-1.467.43-2.3 0-1.227-.283-2.297-.85-3.21-.56-.913-1.36-1.623-2.4-2.13-1.047-.5-2.297-.75-3.75-.75-1.46 0-2.727.297-3.8.89-1.08.593-1.903 1.393-2.47 2.4-.573 1.013-.847 2.147-.82 3.4l.03.08h4.77c0-.913.187-1.643.56-2.19.373-.54.943-.81 1.71-.81.707 0 1.237.23 1.59.69.353.453.53 1.01.53 1.67 0 .4-.077.813-.23 1.24-.153.427-.403.897-.75 1.41-.34.507-.803 1.093-1.39 1.76l-6.53 6.88v3.13h14.25z" style="fill:#dd6969"/></svg>