<svg width="50" height="50" xmlns="http://www.w3.org/2000/svg"><path d="M50 25c0 13.807-11.193 25-25 25S0 38.807 0 25 11.193 0 25 0s25 11.193 25 25zm-29.923-5.926c.005-.359.004-.716-.006-1.074H8.378c-.01.357-.013.715-.006 1.074-.682-.257-1.405-.347-2.033-.208-.928.204-1.557.841-1.773 1.794-.282 1.242.339 2.667 1.749 4.013 1.11 1.059 2.6 1.941 4.173 2.486.652.919 1.487 1.659 2.545 2.11-.154.564-.696 2.197-2.005 3.196l3.196-.001h3.198c-1.31-1-1.852-2.633-2.005-3.197 1.058-.45 1.893-1.19 2.545-2.11 1.572-.544 3.062-1.425 4.173-2.485 1.409-1.345 2.031-2.77 1.749-4.013-.218-.952-.848-1.589-1.775-1.793-.627-.139-1.351-.05-2.032.208zm-1.092 6.165c.576-1.443.884-3.071 1.015-4.628.577-.357 1.278-.537 1.816-.419.406.09.642.333.741.768.167.736-.342 1.756-1.361 2.729a9.654 9.654 0 0 1-2.211 1.55zM5.891 20.96c.098-.435.333-.678.741-.768.538-.119 1.239.062 1.816.419.131 1.558.439 3.185 1.015 4.628-.829-.43-1.591-.957-2.211-1.55-1.019-.973-1.528-1.993-1.361-2.729zm4.227 14.136h8.212v-1.775h-8.212zm31.41-16.022c.005-.359.004-.716-.006-1.074H29.829c-.01.357-.013.715-.006 1.074-.682-.257-1.405-.347-2.033-.208-.928.204-1.557.841-1.773 1.794-.282 1.242.339 2.667 1.749 4.013 1.11 1.059 2.6 1.941 4.173 2.486.652.919 1.487 1.659 2.545 2.11-.154.564-.696 2.197-2.005 3.196l3.196-.001h3.198c-1.31-1-1.852-2.633-2.005-3.197 1.058-.45 1.893-1.19 2.545-2.11 1.572-.544 3.062-1.425 4.173-2.485 1.409-1.345 2.031-2.77 1.749-4.013-.218-.952-.848-1.589-1.775-1.793-.627-.139-1.351-.05-2.032.208zm-1.092 6.165c.576-1.443.884-3.071 1.015-4.628.577-.357 1.278-.537 1.816-.419.406.09.642.333.741.768.167.736-.342 1.756-1.361 2.729a9.654 9.654 0 0 1-2.211 1.55zM27.342 20.96c.098-.435.333-.678.741-.768.538-.119 1.239.062 1.816.419.131 1.558.439 3.185 1.015 4.628-.829-.43-1.591-.957-2.211-1.55-1.019-.973-1.528-1.993-1.361-2.729zm4.227 14.136h8.212v-1.775h-8.212z" style="fill:#bbcaca"/></svg>