<svg width="50" height="50" xmlns="http://www.w3.org/2000/svg"><path d="M50 25c0 13.807-11.193 25-25 25S0 38.807 0 25 11.193 0 25 0s25 11.193 25 25zm-15.842 6.126H15.842a.882.882 0 0 0-.884.884v2.968c0 .506.41.884.884.884h18.316c.506 0 .884-.41.884-.884V32.01c.031-.474-.378-.884-.884-.884zm-1.516-1.264v-4.83c0-4.231-3.442-7.674-7.674-7.674-4.231 0-7.674 3.441-7.674 7.674l.001 4.83zM25 15.211c.694 0 1.263-.569 1.263-1.264v-2.684c0-.694-.569-1.263-1.263-1.263-.695 0-1.263.569-1.263 1.263v2.684c0 .727.568 1.264 1.263 1.264zm-8.684 2.874c.253.253.568.379.884.379.316 0 .632-.126.885-.379a1.28 1.28 0 0 0 0-1.769l-1.895-1.895a1.278 1.278 0 0 0-1.769 0 1.278 1.278 0 0 0 0 1.769zm-2.369 5.684h-2.684c-.694 0-1.263.569-1.263 1.263 0 .695.569 1.263 1.263 1.263h2.684c.695 0 1.264-.568 1.264-1.263 0-.696-.569-1.263-1.264-1.263zm24.79 0h-2.684c-.695 0-1.264.569-1.264 1.263 0 .695.569 1.263 1.264 1.263h2.684c.694 0 1.263-.568 1.263-1.263 0-.696-.569-1.263-1.263-1.263zM32.8 18.463c.315 0 .631-.125.884-.378l1.895-1.895a1.278 1.278 0 0 0 0-1.769 1.278 1.278 0 0 0-1.769 0l-1.895 1.895a1.278 1.278 0 0 0 0 1.769c.253.251.569.378.885.378z" style="fill:#d40808"/><path d="M50 25c0 13.807-11.193 25-25 25V35.862h9.158c.506 0 .884-.41.884-.884V32.01c.031-.474-.378-.884-.884-.884H25v-1.264h7.642v-4.83c0-4.22-3.425-7.657-7.642-7.674v-2.147c.694 0 1.263-.569 1.263-1.264v-2.684c0-.694-.569-1.263-1.263-1.263V0c13.807 0 25 11.193 25 25zm-11.263-1.231h-2.684c-.695 0-1.264.569-1.264 1.263 0 .695.569 1.263 1.264 1.263h2.684c.694 0 1.263-.568 1.263-1.263 0-.696-.569-1.263-1.263-1.263zM32.8 18.463c.315 0 .631-.125.884-.378l1.895-1.895a1.278 1.278 0 0 0 0-1.769 1.278 1.278 0 0 0-1.769 0l-1.895 1.895a1.278 1.278 0 0 0 0 1.769c.253.251.569.378.885.378z" style="fill:#086ed4"/></svg>