<svg width="50" height="50" xmlns="http://www.w3.org/2000/svg"><path d="M50 25c0 13.807-11.193 25-25 25-3.907 0-7.606-.896-10.9-2.495h14.101v-3.234H9.073a25.187 25.187 0 0 1-2.115-1.965h2.13v-4.61h4.687v-8.621H9.088V27.12H.089A25.201 25.201 0 0 1 0 25c0-4.832 1.371-9.344 3.745-13.168h11.478c-.011.515-.012 1.03-.002 1.545-1.193-.449-2.457-.605-3.554-.363-1.622.357-2.722 1.471-3.099 3.136-.493 2.172.592 4.663 3.056 7.015 1.941 1.852 4.545 3.393 7.296 4.346 1.139 1.607 2.599 2.901 4.449 3.688-.27.986-1.217 3.841-3.505 5.588l5.586-.003h5.59c-2.289-1.747-3.236-4.602-3.505-5.588a9.93 9.93 0 0 0 3.129-2.121h17.124V27.12H33.017a21.139 21.139 0 0 0 4.619-2.577h12.36c.003.152.004.304.004.457Zm-7.664-8.852c-.381-1.663-1.482-2.777-3.102-3.134-1.096-.242-2.362-.087-3.553.363.01-.626.007-1.251-.01-1.877h-8.746V8.598H6.132C10.716 3.33 17.469 0 25 0c3.576 0 6.976.751 10.052 2.103h-4.749v3.426h10.379a25.007 25.007 0 0 1 8.557 13.326H42.19c.289-.933.341-1.845.146-2.707Zm-29.074 5.298c-1.781-1.701-2.671-3.484-2.379-4.771.172-.76.583-1.185 1.296-1.343.94-.208 2.165.108 3.174.732.229 2.724.768 5.568 1.774 8.091-1.449-.752-2.78-1.673-3.865-2.709Zm22.285-5.382c1.009-.624 2.234-.938 3.174-.732.711.157 1.123.583 1.296 1.343.143.63.002 1.38-.387 2.18h-4.428a35.6 35.6 0 0 0 .345-2.791ZM18.272 41.386h14.356v-3.104H18.272v3.104Z" style="fill:#d9b100" transform="rotate(-15 25 25)"/></svg>