<?xml version="1.0" encoding="utf-8"?>
<svg width="50" height="50" xmlns="http://www.w3.org/2000/svg">
  <path d="M 50 25 C 50 38.807 38.807 50 25 50 C 11.193 50 0 38.807 0 25 C 0 11.193 11.193 0 25 0 C 38.807 0 50 11.193 50 25 Z M 23.718 22.833 L 9.168 22.833 L 9.168 26.323 L 23.718 26.323 Z M 18.888 28.443 L 14.018 28.443 L 14.018 31.953 L 18.888 31.953 Z M 18.888 17.283 L 14.018 17.283 L 14.018 20.773 L 18.888 20.773 Z M 39.329 28.703 L 35.669 28.703 L 35.469 30.393 L 31.439 30.393 L 31.419 30.323 L 34.479 27.083 C 35.553 25.95 36.413 24.983 37.059 24.183 C 37.706 23.39 38.169 22.64 38.449 21.933 C 38.736 21.233 38.879 20.466 38.879 19.633 C 38.879 18.406 38.596 17.336 38.029 16.423 C 37.469 15.51 36.669 14.8 35.629 14.293 C 34.583 13.793 33.333 13.543 31.879 13.543 C 30.419 13.543 29.153 13.84 28.079 14.433 C 26.999 15.026 26.176 15.826 25.609 16.833 C 25.036 17.846 24.763 18.98 24.789 20.233 L 24.819 20.313 L 29.589 20.313 C 29.589 19.4 29.776 18.67 30.149 18.123 C 30.523 17.583 31.093 17.313 31.859 17.313 C 32.566 17.313 33.096 17.543 33.449 18.003 C 33.803 18.456 33.979 19.013 33.979 19.673 C 33.979 20.073 33.903 20.486 33.749 20.913 C 33.596 21.34 33.346 21.81 32.999 22.323 C 32.659 22.83 32.196 23.416 31.609 24.083 L 25.079 30.963 L 25.079 34.093 L 39.329 34.093 Z" style="fill: rgb(11, 208, 175);"/>
</svg>