<svg width="50" height="50" xmlns="http://www.w3.org/2000/svg"><path d="M50 25c0 13.807-11.193 25-25 25S0 38.807 0 25 11.193 0 25 0s25 11.193 25 25zm-22.87-3.109c.097.128.289.096.322-.064.547-3.217-.804-5.532-2.831-6.852-.16-.096-.064-.354.129-.321 1.575.128 3.441.771 5.21 2.54a.185.185 0 0 0 .321-.128c.065-2.123-2.509-7.623-8.523-5.146-.064.032-.128 0-.161-.033-.707-.579-6.369-4.825-9.713 2.252-.064.16.097.321.257.224 1.029-.643 3.41-1.865 6.015-.997.193.064.161.321-.033.354-3.86.74-5.34 3.924-5.757 5.179-.064.161.128.289.258.194 2.027-1.384 4.503-2.284 7.012-2.058-1.287 2.284-3.796 7.913-2.606 15.727.033.161.194.258.322.194a46.933 46.933 0 0 1 3.12-.932c.257-.064.418-.322.354-.611-.868-3.441-1.641-9.07.354-14.119 2.509.737 4.567 2.538 5.951 4.597zm7.108 1.286c1.575-.515 3.023.225 3.635.611.096.064.193-.033.161-.128-2.027-4.278-5.468-1.705-5.887-1.351-.033.033-.064.033-.097 0-3.635-1.511-5.179 1.802-5.146 3.088 0 .097.128.129.194.064 1.061-1.061 2.187-1.447 3.152-1.544.128 0 .161.129.064.194-1.222.804-2.027 2.187-1.705 4.148.033.097.161.129.194.033.836-1.254 2.09-2.316 3.602-2.734.74 1.833.836 3.763.707 5.468 0 .064.033.097.064.097.611.097 1.19.225 1.769.385.064 0 .128-.032.128-.096-.193-2.928-1.158-5.019-1.736-6.015 1.511-.128 3.023.419 4.245 1.254.097.064.194-.032.161-.128-.258-.771-1.158-2.701-3.474-3.152-.127-.002-.16-.162-.031-.194zM11.627 36.75c-.61.289-.385 1.223.289 1.223h27.662c.546 0 .837-.643.515-1.062-2.252-2.734-10.036-9.327-28.466-.161z" style="fill:#6ac723"/></svg>