<svg width="50" height="50" xmlns="http://www.w3.org/2000/svg"><path d="M50 25c0 13.807-11.193 25-25 25S0 38.807 0 25 11.193 0 25 0s25 11.193 25 25zM33.474 12.971s0 2.944-2.094 4.187c0-3.991-4.186-9.55-8.374-10.467.851 6.084.067 8.308-4.186 14.654 0 0-2.094-1.7-2.094-6.085-3.272 5.758-4.117 6.483-4.186 12.369 0 2.929 1.824 4.948 3.769 6.267V21.955h18.633v10.241c1.503-1.628 2.718-3.824 2.718-6.664 0-7.457-4.186-12.561-4.186-12.561zm-14.5 18.331v-6.655h6.655v6.655h6.654v6.654h-6.654v-6.654zm-1.331-7.985v15.97h15.971v-15.97z" style="fill:#d9b100"/></svg>