<svg width="50" height="50" xmlns="http://www.w3.org/2000/svg"><path d="M50 25c0 13.807-11.193 25-25 25S0 38.807 0 25 11.193 0 25 0s25 11.193 25 25zm-28.083 8.914a6.613 6.613 0 0 0 2.5-2.46c.607-1.033.91-2.207.91-3.52 0-1.333-.223-2.513-.67-3.54-.44-1.033-1.083-1.84-1.93-2.42-.847-.587-1.873-.88-3.08-.88-.807 0-1.54.127-2.2.38-.653.26-1.18.617-1.58 1.07l-.04-.07c-.013-1.413.273-2.497.86-3.25.58-.747 1.5-1.12 2.76-1.12.507 0 1.033.053 1.58.16.54.107 1.073.24 1.6.4l.81-3.48c-.753-.3-1.437-.517-2.05-.65a10.479 10.479 0 0 0-2.11-.19c-1.627 0-3.067.34-4.32 1.02a7.464 7.464 0 0 0-2.95 2.91c-.713 1.26-1.07 2.76-1.07 4.5v4.01c0 1.66.31 3.09.93 4.29.613 1.207 1.47 2.133 2.57 2.78 1.107.647 2.39.97 3.85.97 1.367 0 2.577-.303 3.63-.91zm-5.53-3.88c-.44-.767-.66-1.85-.66-3.25v-1.16c.173-.193.377-.353.61-.48.24-.127.5-.227.78-.3.273-.067.553-.1.84-.1.84 0 1.477.287 1.91.86.44.567.66 1.31.66 2.23 0 .613-.1 1.173-.3 1.68-.2.5-.477.903-.83 1.21-.353.3-.767.45-1.24.45-.747 0-1.337-.38-1.77-1.14zm20.02 3.84a7.048 7.048 0 0 0 2.79-2.64c.687-1.133 1.03-2.45 1.03-3.95v-4.77c0-1.687-.3-3.14-.9-4.36-.593-1.22-1.413-2.16-2.46-2.82-1.04-.66-2.23-.99-3.57-.99-1.38 0-2.596.317-3.65.95a6.804 6.804 0 0 0-2.48 2.57c-.593 1.08-.89 2.28-.89 3.6 0 1.413.24 2.633.72 3.66.48 1.02 1.147 1.81 2 2.37.854.553 1.83.83 2.93.83.7 0 1.354-.137 1.96-.41.607-.273 1.16-.687 1.66-1.24v.45c0 1.347-.306 2.357-.92 3.03-.613.68-1.46 1.02-2.54 1.02a9.545 9.545 0 0 1-1.67-.17c-.626-.12-1.23-.27-1.81-.45l-.48 3.42c.647.273 1.34.483 2.08.63.747.147 1.467.22 2.16.22 1.514 0 2.86-.317 4.04-.95zm-4.37-9.38c-.326-.28-.57-.68-.73-1.2-.153-.52-.23-1.13-.23-1.83 0-.6.09-1.167.27-1.7.18-.527.434-.95.76-1.27.327-.327.717-.49 1.17-.49.62 0 1.137.337 1.55 1.01.407.667.61 1.637.61 2.91v2.16c-.28.267-.61.47-.99.61-.373.14-.75.21-1.13.21-.526 0-.953-.137-1.28-.41z" style="fill:#e963c5"/></svg>