<svg width="50" height="50" xmlns="http://www.w3.org/2000/svg"><path d="M50 25c0 13.807-11.193 25-25 25S0 38.807 0 25 11.193 0 25 0s25 11.193 25 25zM30.498 12.606a.967.967 0 0 0-.772-.648l-2.708-.391-1.21-2.45c-.324-.657-1.392-.657-1.716 0l-1.211 2.45-2.707.391a.966.966 0 0 0-.772.648.962.962 0 0 0 .248.982l1.954 1.907-.458 2.697a.937.937 0 0 0 .382.934.969.969 0 0 0 1.001.077l2.421-1.278 2.421 1.278c.143.066.296.105.448.105a.914.914 0 0 0 .553-.182.934.934 0 0 0 .381-.934l-.457-2.697 1.954-1.907a.962.962 0 0 0 .248-.982zm7.797 12.659h-7.626v-2.383a.95.95 0 0 0-.953-.953h-9.533a.95.95 0 0 0-.953.953v5.72h-7.626a.95.95 0 0 0-.953.953v6.673c0 .524.429.953.953.953h26.691a.955.955 0 0 0 .953-.953V26.219a.949.949 0 0 0-.953-.953zM19.23 35.274h-6.673v-4.766h6.673zm18.112 0h-6.673v-8.102h6.673z" style="fill:#d9b100"/></svg>