<svg width="50" height="50" xmlns="http://www.w3.org/2000/svg"><path d="M50 25c0 13.807-11.193 25-25 25S0 38.807 0 25 11.193 0 25 0s25 11.193 25 25zM35.55 8.827l-.042.182c-.184.792-.858 1.349-1.64 1.349-.78-.001-1.455-.557-1.639-1.349l-.042-.182h-.299l-.034.011c-.212.065-5.187 1.598-5.414 1.671l-.012.005c-.188.072-.368.266-.471.505a1.015 1.015 0 0 0-.018.785c.233.718.522 1.81.632 2.222l.047.174c.084.297.437.501.803.463l1.791-.184V22.2c0 .46.325.948.93.948h7.455c.604 0 .929-.488.929-.948v-7.721l1.79.184c.366.038.719-.166.803-.463l.048-.175c.11-.415.402-1.514.635-2.23l-.008.019c.104-.248.1-.529-.014-.795-.103-.239-.283-.433-.471-.505l-.012-.005c-.228-.073-5.203-1.606-5.415-1.671l-.034-.011zm-17.744 0-.042.182c-.184.792-.858 1.349-1.64 1.349-.78-.001-1.455-.557-1.639-1.349l-.042-.182h-.299l-.034.011c-.212.065-5.187 1.598-5.414 1.671l-.012.005c-.188.072-.368.266-.471.505a1.015 1.015 0 0 0-.018.785c.233.718.522 1.81.632 2.222l.047.174c.084.297.437.501.803.463l1.791-.184V22.2c0 .46.325.948.93.948h7.455c.604 0 .929-.488.929-.948v-7.721l1.79.184c.366.038.719-.166.803-.463l.048-.175c.11-.415.402-1.514.635-2.23l-.008.019c.104-.248.1-.529-.014-.795-.103-.239-.283-.433-.471-.505l-.012-.005c-.228-.073-5.203-1.606-5.415-1.671l-.034-.011zm0 17.197-.042.182c-.184.792-.858 1.349-1.64 1.349-.78-.001-1.455-.557-1.639-1.349l-.042-.182h-.299l-.034.011c-.212.065-5.187 1.598-5.414 1.671l-.012.005c-.188.072-.368.266-.471.505a1.015 1.015 0 0 0-.018.785c.233.717.522 1.81.632 2.222l.047.174c.084.297.437.501.803.463l1.791-.184v7.721c0 .46.325.948.93.948h7.455c.604 0 .929-.488.929-.948v-7.721l1.79.184c.366.038.719-.166.803-.463l.048-.175c.11-.415.402-1.514.635-2.23l-.008.019c.104-.248.1-.529-.014-.795-.103-.239-.283-.433-.471-.505l-.012-.005c-.228-.073-5.203-1.606-5.415-1.671l-.034-.011zm17.744 0-.042.182c-.184.792-.858 1.349-1.64 1.349-.78-.001-1.455-.557-1.639-1.349l-.042-.182h-.299l-.034.011c-.212.065-5.187 1.598-5.414 1.671l-.012.005c-.188.072-.368.266-.471.505a1.015 1.015 0 0 0-.018.785c.233.717.522 1.81.632 2.222l.047.174c.084.297.437.501.803.463l1.791-.184v7.721c0 .46.325.948.93.948h7.455c.604 0 .929-.488.929-.948v-7.721l1.79.184c.366.038.719-.166.803-.463l.048-.175c.11-.415.402-1.514.635-2.23l-.008.019c.104-.248.1-.529-.014-.795-.103-.239-.283-.433-.471-.505l-.012-.005c-.228-.073-5.203-1.606-5.415-1.671l-.034-.011z" style="fill:#db61a2"/></svg>