<svg width="50" height="50" xmlns="http://www.w3.org/2000/svg"><path d="M50 25c0 13.807-11.193 25-25 25S0 38.807 0 25 11.193 0 25 0s25 11.193 25 25zM38.169 11.34c.004-.28.003-.56-.005-.84h-9.148c-.007.278-.01.56-.004.84-.534-.201-1.1-.271-1.591-.163-.726.159-1.218.658-1.387 1.404-.221.972.265 2.087 1.368 3.14.869.828 2.035 1.518 3.264 1.944.511.72 1.165 1.298 1.992 1.651-.121.441-.544 1.719-1.568 2.501l2.5-.001h2.503c-1.026-.783-1.451-2.06-1.57-2.501.828-.353 1.481-.931 1.992-1.651 1.23-.426 2.396-1.115 3.264-1.944 1.101-1.052 1.589-2.167 1.367-3.14-.169-.745-.662-1.244-1.386-1.403-.492-.108-1.059-.039-1.591.163zm-11.098 1.476c.076-.34.259-.531.579-.602.421-.092.97.049 1.421.329.102 1.219.343 2.49.795 3.621a7.47 7.47 0 0 1-1.73-1.214c-.798-.761-1.196-1.559-1.065-2.134zm10.244 3.348c.45-1.131.692-2.403.794-3.621.451-.28.999-.42 1.421-.329.317.071.501.262.58.602.13.575-.268 1.373-1.066 2.134a7.517 7.517 0 0 1-1.729 1.214zm-6.937 7.71h6.424v-1.388h-6.424zm7.792 3.515c.005-.28.004-.559-.005-.84h-9.148c-.007.279-.01.559-.005.84-.533-.201-1.099-.272-1.59-.163-.725.16-1.219.659-1.388 1.404-.22.971.265 2.086 1.369 3.14.868.828 2.034 1.518 3.265 1.944.51.72 1.163 1.298 1.99 1.651-.12.441-.543 1.719-1.567 2.501l2.5-.001h2.502c-1.025-.783-1.45-2.06-1.57-2.501.829-.353 1.482-.931 1.992-1.651 1.23-.426 2.396-1.115 3.265-1.944 1.102-1.053 1.589-2.168 1.368-3.14-.171-.744-.663-1.243-1.388-1.403-.491-.109-1.057-.039-1.59.163zm-11.098 1.475c.075-.339.26-.53.579-.6.421-.093.97.048 1.421.328.102 1.218.343 2.49.794 3.62a7.513 7.513 0 0 1-1.729-1.213c-.798-.761-1.197-1.56-1.065-2.135zm10.244 3.348c.45-1.13.691-2.402.793-3.62.453-.28 1.001-.42 1.422-.328.317.07.501.261.579.6.13.575-.267 1.374-1.065 2.135a7.513 7.513 0 0 1-1.729 1.213zm-6.937 7.712h6.425v-1.389h-6.425zm-16.784 0h6.426v-1.389h-6.426zm7.793-12.535c.003-.281.002-.56-.006-.84h-9.147c-.009.279-.01.559-.005.84-.533-.201-1.099-.272-1.591-.163-.726.16-1.218.659-1.387 1.404-.22.971.265 2.086 1.369 3.14.868.828 2.033 1.518 3.265 1.944.51.72 1.162 1.298 1.991 1.651-.121.441-.545 1.719-1.569 2.501l2.5-.001h2.502c-1.024-.783-1.449-2.06-1.568-2.501.827-.353 1.481-.931 1.99-1.651 1.23-.426 2.397-1.115 3.266-1.944 1.102-1.053 1.589-2.168 1.368-3.14-.17-.744-.664-1.243-1.389-1.403-.491-.109-1.057-.039-1.589.163zm-11.099 1.475c.076-.339.26-.53.579-.6.422-.093.969.048 1.422.328.102 1.218.343 2.49.793 3.62a7.562 7.562 0 0 1-1.73-1.213c-.795-.761-1.195-1.56-1.064-2.135zm10.244 3.348c.452-1.13.691-2.402.794-3.62.453-.28 1-.42 1.421-.328.318.07.502.261.58.6.13.575-.268 1.374-1.064 2.135-.517.484-1.1.892-1.731 1.213zm.856-20.872c.003-.28.002-.56-.005-.84h-9.149c-.007.278-.01.56-.003.84-.534-.201-1.1-.271-1.592-.163-.726.159-1.218.658-1.386 1.404-.221.972.265 2.087 1.367 3.14.869.828 2.035 1.518 3.265 1.944.511.72 1.164 1.298 1.992 1.651-.121.441-.545 1.719-1.569 2.501l2.5-.001h2.503c-1.026-.783-1.45-2.06-1.569-2.501.827-.353 1.481-.931 1.991-1.651 1.229-.426 2.396-1.115 3.265-1.944 1.101-1.052 1.589-2.167 1.367-3.14-.169-.745-.663-1.244-1.387-1.403-.492-.108-1.058-.039-1.59.163zM10.29 12.816c.077-.34.26-.531.579-.602.422-.092.97.049 1.421.329.103 1.219.344 2.49.794 3.621a7.535 7.535 0 0 1-1.73-1.214c-.796-.761-1.195-1.559-1.064-2.134zm10.244 3.348c.451-1.131.692-2.403.794-3.621.452-.28 1-.42 1.42-.329.319.071.503.262.581.602.131.575-.268 1.373-1.065 2.134a7.523 7.523 0 0 1-1.73 1.214zm-6.937 7.71h6.424v-1.388h-6.424z" style="fill:#b98247"/></svg>