<svg width="50" height="50" xmlns="http://www.w3.org/2000/svg"><path d="M50 25c0 13.807-11.193 25-25 25S0 38.807 0 25 11.193 0 25 0s25 11.193 25 25Zm-9.17 2.737c.461-1.114 1.038-2.306.232-3.46-.846-1.192-7.113 1.422-7.113 1.422.153 1.001.538 3.115.538 3.115-3.805 2.191-9.496 2.268-9.496 2.268-.231 0-5.729-.114-9.458-2.268 0 0 .384-2.077.537-3.115 0 0-6.227-2.575-7.073-1.422-.845 1.154-.269 2.384.192 3.46 3.5 6.575 13.727 7.997 15.802 7.805 2.115.153 12.34-1.23 15.84-7.805Zm-6.879-2.46s-.039-3.267-1.653-8.15c-.577-1.692-2.229-3.383-4.383-1.961-2.037 1.383-2.845 1.307-2.922 1.307 0 0-.769.154-2.922-1.307-2.154-1.46-3.769.231-4.345 1.961-1.615 4.883-1.654 8.15-1.654 8.15s4.229 2.038 8.919 1.999c4.691.039 8.958-1.999 8.96-1.999Z" style="fill:#c17401"/></svg>