<svg width="50" height="50" xmlns="http://www.w3.org/2000/svg"><path d="M50 25c0 13.807-11.193 25-25 25S0 38.807 0 25 11.193 0 25 0s25 11.193 25 25ZM36.165 10.333l-.031.132c-.133.577-.624.983-1.193.983-.568-.001-1.059-.406-1.192-.983l-.031-.132H33.5l-.025.008c-.154.047-3.773 1.163-3.939 1.216l-.009.004c-.136.052-.267.193-.342.367a.733.733 0 0 0-.013.572c.169.521.379 1.317.46 1.616l.034.127c.061.216.318.365.584.337l1.303-.134v5.618c0 .335.236.69.676.69h5.426c.439 0 .675-.355.675-.69v-5.618l1.303.134c.266.028.523-.121.584-.337l.035-.128c.081-.301.293-1.101.462-1.622l-.006.014a.734.734 0 0 0-.01-.579c-.075-.174-.206-.315-.343-.367l-.008-.004c-.166-.053-3.787-1.169-3.94-1.216l-.026-.008Zm-19.588 0-.031.132c-.133.577-.624.983-1.193.983-.568-.001-1.059-.406-1.192-.983l-.031-.132h-.218l-.025.008c-.154.047-3.774 1.163-3.939 1.216l-.009.004c-.136.052-.267.193-.342.367a.737.737 0 0 0-.014.572c.17.521.38 1.317.461 1.616l.034.127c.061.216.318.365.584.337l1.303-.134v5.618c0 .335.236.69.676.69h5.425c.44 0 .676-.355.676-.69v-5.618l1.303.134c.266.028.523-.121.584-.337l.035-.128c.08-.301.293-1.101.462-1.622l-.006.014a.734.734 0 0 0-.01-.579c-.075-.174-.206-.315-.343-.367l-.009-.004c-.165-.053-3.786-1.169-3.939-1.216l-.026-.008Zm9.767 9.399-.03.132c-.134.576-.625.983-1.194.983-.568-.001-1.058-.407-1.192-.983l-.03-.132h-.219l-.024.008c-.155.047-3.774 1.163-3.94 1.216l-.009.004c-.136.052-.267.193-.342.367a.737.737 0 0 0-.013.572c.169.521.38 1.316.46 1.616l.034.127c.061.216.318.365.584.337l1.303-.134v5.618c0 .335.237.69.677.69h5.425c.439 0 .676-.355.676-.69v-5.618l1.302.134c.267.028.524-.121.585-.337l.035-.128c.08-.301.292-1.101.461-1.622l-.006.014a.733.733 0 0 0-.009-.579c-.075-.174-.206-.315-.343-.367l-.009-.004c-.166-.053-3.786-1.169-3.94-1.216l-.025-.008Zm-9.767 9.201-.031.132c-.133.576-.624.982-1.193.982-.568-.001-1.059-.406-1.192-.982l-.031-.132h-.218l-.025.008c-.154.047-3.774 1.163-3.939 1.215l-.009.005c-.136.052-.267.193-.342.366a.737.737 0 0 0-.014.572c.17.522.38 1.317.461 1.617l.034.126c.061.217.318.365.584.337l1.303-.133v5.618c0 .334.236.69.676.69h5.425c.44 0 .676-.356.676-.69v-5.618l1.303.133c.266.028.523-.12.584-.337l.035-.127c.08-.301.293-1.101.462-1.623l-.006.014a.734.734 0 0 0-.01-.579c-.075-.173-.206-.314-.343-.366l-.009-.005c-.165-.052-3.786-1.168-3.939-1.215l-.026-.008Zm19.588 0-.031.132c-.133.576-.624.982-1.193.982-.568-.001-1.059-.406-1.192-.982l-.031-.132H33.5l-.025.008-3.939 1.215-.009.005c-.136.052-.267.193-.342.366a.733.733 0 0 0-.013.572c.169.522.379 1.317.46 1.617l.034.126c.061.217.318.365.584.337l1.303-.133v5.618c0 .334.236.69.676.69h5.426c.439 0 .675-.356.675-.69v-5.618l1.303.133c.266.028.523-.12.584-.337l.035-.127c.081-.301.293-1.101.462-1.623l-.006.014a.734.734 0 0 0-.01-.579c-.075-.173-.206-.314-.343-.366l-.008-.005-3.94-1.215-.026-.008Z" style="fill:#d84f98"/></svg>