<svg width="50" height="50" xmlns="http://www.w3.org/2000/svg"><path d="M50 25c0 13.807-11.193 25-25 25S0 38.807 0 25 11.193 0 25 0s25 11.193 25 25ZM38.557 13.266l-.03.126c-.127.552-.597.941-1.141.941-.543-.001-1.013-.389-1.14-.941l-.03-.126h-.208l-.024.008c-.148.045-3.61 1.112-3.768 1.163l-.009.004c-.13.049-.255.184-.327.351a.702.702 0 0 0-.013.547c.162.498.363 1.26.44 1.546l.033.121c.058.207.304.35.559.323l1.246-.128v5.374c0 .32.226.66.647.66h5.19c.42 0 .646-.34.646-.66v-5.374l1.247.128c.254.027.5-.116.558-.323l.034-.122c.077-.288.28-1.053.442-1.552l-.006.014a.698.698 0 0 0-.01-.554c-.071-.167-.197-.302-.328-.351l-.007-.004c-.159-.051-3.623-1.118-3.769-1.163l-.025-.008Zm0 13.585-.03.126c-.127.551-.597.94-1.141.94-.543-.001-1.013-.389-1.14-.94l-.03-.126h-.208l-.024.008c-.148.045-3.61 1.112-3.768 1.162l-.009.005c-.13.05-.255.184-.327.35a.702.702 0 0 0-.013.547c.162.499.363 1.26.44 1.547l.033.121c.058.207.304.349.559.322l1.246-.127v5.374c0 .32.226.66.647.66h5.19c.42 0 .646-.34.646-.66v-5.374l1.247.127c.254.027.5-.115.558-.322l.034-.122c.077-.288.28-1.053.442-1.553l-.006.014a.698.698 0 0 0-.01-.554c-.071-.166-.197-.3-.328-.35l-.007-.005-3.769-1.162-.025-.008Zm-12.265 0-.03.126c-.127.551-.596.94-1.141.94-.543-.001-1.013-.389-1.14-.94l-.03-.126h-.208l-.024.008c-.148.045-3.611 1.112-3.768 1.162l-.009.005c-.13.05-.255.184-.327.35a.706.706 0 0 0-.014.547c.163.499.364 1.26.441 1.547l.033.121c.058.207.304.349.559.322l1.246-.127v5.374c0 .32.226.66.647.66h5.19c.42 0 .646-.34.646-.66v-5.374l1.247.127c.254.027.5-.115.558-.322l.034-.122c.076-.288.28-1.053.442-1.553l-.006.014a.702.702 0 0 0-.009-.554c-.072-.166-.198-.3-.329-.35l-.008-.005c-.158-.05-3.622-1.117-3.768-1.162l-.025-.008Zm0-13.585-.029.126c-.128.551-.597.941-1.142.941-.543-.001-1.012-.39-1.14-.941l-.029-.126h-.209l-.023.008c-.149.045-3.611 1.112-3.769 1.163l-.009.004c-.13.049-.255.184-.327.351a.706.706 0 0 0-.013.547c.162.498.364 1.259.44 1.546l.033.121c.058.207.304.35.559.323l1.246-.128v5.374c0 .32.227.66.648.66h5.189c.42 0 .647-.34.647-.66v-5.374l1.246.128c.255.027.501-.116.559-.323l.034-.122c.076-.288.279-1.053.441-1.552l-.006.014a.698.698 0 0 0-.009-.554c-.071-.167-.197-.302-.328-.351l-.008-.004c-.159-.051-3.622-1.118-3.769-1.163l-.024-.008Zm-12.213 0-.03.126c-.127.552-.597.941-1.141.941-.543-.001-1.013-.389-1.14-.941l-.03-.126h-.209l-.024.008c-.147.045-3.61 1.112-3.768 1.163l-.008.004c-.13.049-.256.184-.327.351a.702.702 0 0 0-.014.547c.163.498.364 1.26.441 1.546l.033.121c.058.207.304.35.558.323l1.247-.128v5.374c0 .32.226.66.646.66h5.19c.421 0 .647-.34.647-.66v-5.374l1.246.128c.255.027.501-.116.559-.323l.034-.122c.076-.288.28-1.053.442-1.552l-.006.014a.703.703 0 0 0-.01-.554c-.072-.167-.197-.302-.328-.351l-.009-.004a1861.94 1861.94 0 0 0-3.768-1.163l-.025-.008Zm0 13.585-.03.126c-.127.551-.597.94-1.141.94-.543-.001-1.013-.389-1.14-.94l-.03-.126h-.209l-.024.008c-.147.045-3.61 1.112-3.768 1.162l-.008.005c-.13.05-.256.184-.327.35a.702.702 0 0 0-.014.547c.163.499.364 1.26.441 1.547l.033.121c.058.207.304.349.558.322l1.247-.127v5.374c0 .32.226.66.646.66h5.19c.421 0 .647-.34.647-.66v-5.374l1.246.127c.255.027.501-.115.559-.322l.034-.122c.076-.288.28-1.053.442-1.553l-.006.014a.703.703 0 0 0-.01-.554c-.072-.166-.197-.3-.328-.35l-.009-.005c-.157-.05-3.621-1.117-3.768-1.162l-.025-.008Z" style="fill:#d93f91"/></svg>