<svg width="50" height="50" xmlns="http://www.w3.org/2000/svg"><path d="M50 25c0 13.807-11.193 25-25 25S0 38.807 0 25 11.193 0 25 0s25 11.193 25 25zM39.234 13.014c-1.096-.242-2.362-.087-3.553.363a43.16 43.16 0 0 0-.01-1.877h-20.44a38.86 38.86 0 0 0-.01 1.877c-1.193-.449-2.457-.605-3.554-.363-1.622.357-2.722 1.471-3.099 3.136-.493 2.172.592 4.663 3.056 7.015 1.941 1.852 4.545 3.393 7.296 4.346 1.139 1.607 2.599 2.901 4.449 3.688-.27.986-1.217 3.841-3.505 5.588l5.586-.003h5.59c-2.289-1.747-3.236-4.602-3.505-5.588 1.851-.787 3.31-2.081 4.449-3.688 2.749-.952 5.354-2.492 7.296-4.344 2.463-2.352 3.549-4.842 3.056-7.016-.381-1.663-1.482-2.777-3.102-3.134zm-25.972 8.432c-1.781-1.701-2.671-3.484-2.379-4.771.172-.76.583-1.185 1.296-1.343.94-.208 2.165.108 3.174.732.229 2.724.768 5.568 1.774 8.091-1.449-.752-2.78-1.673-3.865-2.709zm24.376 0c-1.085 1.036-2.416 1.957-3.865 2.709 1.006-2.523 1.545-5.368 1.774-8.091 1.009-.624 2.234-.938 3.174-.732.711.157 1.123.583 1.296 1.343.292 1.287-.598 3.07-2.379 4.771zm-19.366 19.94h14.356v-3.104H18.272z" style="fill:#bbcaca"/></svg>