<svg width="50" height="50" xmlns="http://www.w3.org/2000/svg"><path d="M50 25c0 13.807-11.193 25-25 25S0 38.807 0 25 11.193 0 25 0s25 11.193 25 25ZM28.548 14.694a13.105 13.105 0 0 0-12.468 9.101.677.677 0 0 1-.522.469.679.679 0 0 1-.661-.242 3.235 3.235 0 0 0-2.541-1.232 3.238 3.238 0 0 0-2.446 5.506c.474.629 1.221.99 2.009.972h4.129a3.24 3.24 0 0 0 2.784 1.62h3.238v3.238h.002a1.62 1.62 0 1 0 3.238 0v-3.238h11.335v3.238a1.62 1.62 0 1 0 3.238 0v-3.692a3.243 3.243 0 0 0 1.62-2.786 12.956 12.956 0 0 0-12.955-12.953ZM11.545 26.03a.81.81 0 1 1 .003-1.62.81.81 0 0 1-.003 1.62Zm5.669 8.096a1.618 1.618 0 1 0 3.238 0v-1.62h-3.238Zm14.573 0a1.618 1.618 0 1 0 3.238 0v-1.62h-3.238Z" style="fill:#6c8042"/></svg>