<svg width="50" height="50" xmlns="http://www.w3.org/2000/svg"><path d="M50 25c0 13.807-11.193 25-25 25S0 38.807 0 25 11.193 0 25 0s25 11.193 25 25zm-14.554-6.519.268-.268c1.071-1.072 1.071-2.767 0-3.75-1.072-.983-2.767-1.071-3.75 0l-.268.268c-1.25-.804-2.59-1.339-4.018-1.696V10h-5.356v2.946c-5.625 1.251-9.822 6.249-9.822 12.232 0 6.876 5.625 12.5 12.5 12.5s12.5-5.624 12.5-12.5c-.089-2.501-.804-4.822-2.054-6.697zM24.911 34.106c-4.91 0-8.927-4.018-8.927-8.928 0-4.909 4.017-8.927 8.927-8.927 4.91 0 8.928 4.018 8.928 8.927 0 4.91-4.018 8.928-8.928 8.928zm5.178-7.411-3.838-2.322v-.981c0-.715-.625-1.339-1.34-1.339-.715 0-1.339.624-1.339 1.339v2.5l5.089 3.035c.179.088.447.179.715.179.447 0 .892-.268 1.16-.625.357-.535.179-1.429-.447-1.786zm-6.07-8.66c0 1.191 1.785 1.191 1.785 0 0-1.19-1.785-1.19-1.785 0zm-7.143 7.142c0 1.19 1.786 1.19 1.786 0s-1.786-1.19-1.786 0zm7.143 7.143c0 1.19 1.785 1.19 1.785 0s-1.785-1.19-1.785 0zm7.141-7.143c0 1.19 1.787 1.19 1.787 0s-1.787-1.19-1.787 0z" style="fill:#b3ce9c"/></svg>