<svg width="50" height="50" xmlns="http://www.w3.org/2000/svg"><path d="M50 25c0 13.807-11.193 25-25 25S0 38.807 0 25 11.193 0 25 0s25 11.193 25 25zm-13.781 4.944L25.021 9.941 13.823 29.944c6.633 4.838 15.764 4.838 22.396 0zm-7.937-.489a2.32 2.32 0 0 0 2.338-2.337c0-.325.272-.543.543-.543.272 0 .543.272.543.543 0 1.902-1.576 3.48-3.479 3.48a.545.545 0 0 1-.543-.544c0-.381.272-.599.598-.599zm-6.957 2.5a2.32 2.32 0 0 1-2.338-2.337 2.32 2.32 0 0 1 2.338-2.337 2.319 2.319 0 0 1 2.337 2.337 2.319 2.319 0 0 1-2.337 2.337zm-1.142-9.893c0-.325.271-.543.543-.543.326 0 .543.272.543.543a2.32 2.32 0 0 0 2.338 2.338c.325 0 .543.271.543.543a.518.518 0 0 1-.489.599c-1.901 0-3.478-1.577-3.478-3.48zm4.077-2.609c0-.978.761-1.739 1.74-1.739.977 0 1.739.761 1.739 1.739 0 .979-.762 1.739-1.739 1.739a1.715 1.715 0 0 1-1.74-1.739zm12.502 11.524c-3.479 2.501-7.61 3.751-11.741 3.751-4.132 0-8.262-1.25-11.741-3.751v.054l-1.521 2.718c7.337 5.979 19.242 5.979 26.526 0z" style="fill:#03a1fc"/></svg>