<svg width="50" height="50" xmlns="http://www.w3.org/2000/svg"><path d="M50 25c0 13.807-11.193 25-25 25S0 38.807 0 25 11.193 0 25 0s25 11.193 25 25zm-13.614 1.94c-2.611-2.28-5.86-2.259-8.397-2.25.002-.044.005-.087.005-.13 0-.048-.004-.092-.006-.141 2.536-.002 5.787.007 8.389-2.287 1.586-1.397 2.008-3.853 1.19-5.181-.54-.878-2.428-1.981-3.247-1.307.668-.825-.442-2.707-1.323-3.244-1.329-.812-3.783-.379-5.174 1.212-2.281 2.61-2.26 5.862-2.252 8.399-.043-.002-.086-.006-.13-.006-.047 0-.093.005-.138.007-.004-2.537.005-5.79-2.288-8.39-1.397-1.588-3.853-2.008-5.18-1.192-.878.541-1.981 2.427-1.309 3.248-.823-.668-2.705.442-3.242 1.323-.812 1.331-.382 3.784 1.212 5.175 2.611 2.279 5.862 2.261 8.399 2.253a1.77 1.77 0 0 0-.006.127c0 .051.004.094.008.141-2.538.002-5.788-.005-8.391 2.288-1.588 1.397-2.007 3.852-1.19 5.179.539.877 2.425 1.979 3.246 1.308-.669.822.441 2.706 1.325 3.243 1.329.811 3.783.381 5.174-1.214 2.28-2.611 2.26-5.861 2.252-8.398.044.002.085.006.129.006.049 0 .095-.005.142-.007.002 2.537-.004 5.787 2.286 8.39 1.397 1.587 3.853 2.009 5.181 1.192.877-.543 1.98-2.43 1.308-3.251.823.669 2.705-.44 3.243-1.321.808-1.325.377-3.779-1.216-5.17z" style="fill:#5aa843"/></svg>