<svg width="50" height="50" xmlns="http://www.w3.org/2000/svg"><path d="M24.986 18.338a5.543 5.543 0 0 1-3.834-1.59 5.543 5.543 0 0 1-1.59-3.834 5.54 5.54 0 0 1 1.59-3.833 5.542 5.542 0 0 1 3.834-1.589 5.58 5.58 0 0 1 3.852 1.589c.96.954 1.599 2.374 1.599 3.833 0 1.46-.639 2.88-1.599 3.835a5.58 5.58 0 0 1-3.852 1.589zm3.147-2.298c.833-.829 1.304-1.871 1.304-3.126 0-1.254-.471-2.295-1.304-3.124a4.324 4.324 0 0 0-3.147-1.298c-1.255 0-2.298.468-3.127 1.297-.828.828-1.297 1.87-1.297 3.125s.469 2.298 1.297 3.127c.829.828 1.872 1.297 3.127 1.297a4.324 4.324 0 0 0 3.147-1.298zm.621-3.126c0 .996-.451 1.995-1.106 2.644a3.904 3.904 0 0 1-2.662 1.095 3.861 3.861 0 0 1-2.642-1.096 3.866 3.866 0 0 1-1.096-2.643c0-.995.447-1.993 1.096-2.642a3.861 3.861 0 0 1 2.642-1.096c1.002 0 2.006.445 2.661 1.094a3.844 3.844 0 0 1 1.107 2.644zm-1.81-1.934a2.652 2.652 0 0 0-1.958-.804c-.79 0-1.411.28-1.935.803-.523.524-.803 1.145-.803 1.935 0 .791.28 1.412.803 1.936.524.523 1.145.803 1.935.803.8 0 1.429-.281 1.958-.805.528-.524.81-1.144.81-1.934s-.282-1.411-.81-1.934z" style="fill:none"/><path d="M56.836 30.773a6.836 6.836 0 1 1-13.672 0 6.836 6.836 0 0 1 13.672 0" style="fill:#232a4d" transform="translate(-5.476 -5.476) scale(.60952)"/><path d="M50 8.984C27.348 8.984 8.984 27.347 8.984 50S27.347 91.016 50 91.016 91.016 72.653 91.016 50 72.653 8.984 50 8.984zm0 67.078a6.835 6.835 0 0 1-4.832-11.668 6.838 6.838 0 0 1 7.45-1.484 6.835 6.835 0 0 1 4.218 6.316A6.833 6.833 0 0 1 50 76.062zM50 50a19.208 19.208 0 0 0-19.214 19.832 19.2 19.2 0 0 0 6.297 13.613C23.665 78.242 14.11 65.23 14.11 50c0-19.789 16.102-35.89 35.89-35.89 4.422.007 8.801.835 12.919 2.445a19.217 19.217 0 0 1 .894 27.6A19.21 19.21 0 0 1 50.001 50z" style="fill:#232a4d" transform="translate(-5.476 -5.476) scale(.60952)"/></svg>